<svg width="16" height="16" viewBox="0 0 16 16" fill="none" xmlns="http://www.w3.org/2000/svg">
<path d="M14.6777 3.85586C14.8324 3.94515 14.9277 4.10992 14.9277 4.28848V11.7113C14.9277 11.89 14.8324 12.0546 14.6777 12.1439L8.25 15.8559C8.09534 15.9451 7.90466 15.9451 7.75 15.8559L5.11621 14.3344L7.30762 10.9242L7.71875 11.1625C7.87338 11.2518 8.06409 11.2517 8.21875 11.1625L10.75 9.70059C10.9046 9.61125 11 9.44653 11 9.26797V6.34512C10.9999 6.16659 10.9046 6.0018 10.75 5.9125L10.5889 5.81973L12.6172 2.66543L14.6777 3.85586Z" fill="black"/>
<path d="M7.75 0.143947C7.90461 0.0547601 8.09539 0.05476 8.25 0.143947L10.8828 1.66446L8.85449 4.81778L8.21875 4.45059C8.06411 4.36144 7.87335 4.36135 7.71875 4.45059L5.1875 5.9125C5.03305 6.00183 4.93756 6.16668 4.9375 6.34512V9.26797C4.93751 9.44644 5.03304 9.61122 5.1875 9.70059L5.57324 9.92324L3.38184 13.3334L1.32227 12.1439C1.16757 12.0546 1.07227 11.89 1.07227 11.7113V4.28848C1.07233 4.10992 1.16762 3.94515 1.32227 3.85586L7.75 0.143947Z" fill="black"/>
</svg>
