<svg width="16" height="16" viewBox="0 0 16 16" fill="none" xmlns="http://www.w3.org/2000/svg">
<path d="M14.9277 4V12L8 16L1.07227 12V4L8 0L14.9277 4ZM7.75 5.56738L6.01758 6.56738L5.76758 6.71094V9.28906L6.01758 9.43262L7.75 10.4326L8 10.5771L8.25 10.4326L9.98145 9.43262L10.2314 9.28906V6.71094L9.98145 6.56738L8.25 5.56738L8 5.42285L7.75 5.56738Z" fill="black"/>
<path d="M8.00003 6L9.73208 7V9M8.00003 6L6.26798 7V9M8.00003 6L4.73205 4L3 5V11M8.00003 2L13.0001 5V7L9.73208 9L8.00003 10L6.26798 9M6.26798 9V13L8.00003 14L13.0001 11" stroke="white"/>
<circle cx="8" cy="2" r="1" fill="white"/>
<circle cx="3" cy="11" r="1" fill="white"/>
<circle cx="13" cy="11" r="1" fill="white"/>
</svg>
