<svg width="16" height="16" viewBox="0 0 16 16" fill="none" xmlns="http://www.w3.org/2000/svg">
<g clip-path="url(#clip0_726_5)">
<g filter="url(#filter0_d_726_5)">
<path d="M14.4998 4.24219H14.9998V3.95352L14.7498 3.80918L14.4998 4.24219ZM14.4998 11.7471L14.7498 12.1801L14.9998 12.0357V11.7471H14.4998ZM7.99976 15.5L7.74975 15.933L7.99976 16.0774L8.24976 15.933L7.99976 15.5ZM1.49976 11.7471H0.999756V12.0357L1.24975 12.1801L1.49976 11.7471ZM1.49976 4.24219L1.24975 3.80918L0.999756 3.95352V4.24219H1.49976ZM7.99976 0.489258L8.24976 0.0562495L7.99976 -0.0880983L7.74975 0.0562495L7.99976 0.489258ZM14.4998 4.24219H13.9998V11.7471H14.4998H14.9998V4.24219H14.4998ZM14.4998 11.7471L14.2497 11.3141L7.74975 15.067L7.99976 15.5L8.24976 15.933L14.7498 12.1801L14.4998 11.7471ZM7.99976 15.5L8.24976 15.067L1.74976 11.3141L1.49976 11.7471L1.24975 12.1801L7.74975 15.933L7.99976 15.5ZM1.49976 11.7471H1.99976V4.24219H1.49976H0.999756V11.7471H1.49976ZM1.49976 4.24219L1.74976 4.6752L8.24976 0.922266L7.99976 0.489258L7.74975 0.0562495L1.24975 3.80918L1.49976 4.24219ZM7.99976 0.489258L7.74975 0.922266L14.2497 4.6752L14.4998 4.24219L14.7498 3.80918L8.24976 0.0562495L7.99976 0.489258Z" fill="black"/>
</g>
<path d="M8.00002 6.11811L9.62502 7.0563V8.93268M8.00002 6.11811L6.37502 7.0563V8.93268M8.00002 6.11811L4.93402 4.24173L3.30902 5.17992V10.8091M8.00002 2.36535L12.691 5.17992V7.0563L9.62502 8.93268L8.00002 9.87088L6.37502 8.93268M6.37502 8.93268V12.6854L8.00002 13.6236L12.691 10.8091" stroke="black"/>
<path d="M8.00024 1.92714C8.24212 1.92729 8.43774 2.12371 8.43774 2.36562C8.43759 2.6074 8.24203 2.80296 8.00024 2.80312C7.75833 2.80312 7.56192 2.60749 7.56177 2.36562C7.56177 2.12361 7.75823 1.92714 8.00024 1.92714Z" fill="black" stroke="black"/>
<path d="M3.30939 10.3708C3.55127 10.371 3.74689 10.5674 3.74689 10.8093C3.74674 11.0511 3.55117 11.2467 3.30939 11.2468C3.06747 11.2468 2.87106 11.0512 2.87091 10.8093C2.87091 10.5673 3.06738 10.3708 3.30939 10.3708Z" fill="black" stroke="black"/>
<path d="M12.6913 10.3708C12.9332 10.371 13.1288 10.5674 13.1288 10.8093C13.1286 11.0511 12.9331 11.2467 12.6913 11.2468C12.4494 11.2468 12.253 11.0512 12.2528 10.8093C12.2528 10.5673 12.4493 10.3708 12.6913 10.3708Z" fill="black" stroke="black"/>
</g>
<defs>
<filter id="filter0_d_726_5" x="-3.00024" y="-0.0881042" width="22" height="24.1655" filterUnits="userSpaceOnUse" color-interpolation-filters="sRGB">
<feFlood flood-opacity="0" result="BackgroundImageFix"/>
<feColorMatrix in="SourceAlpha" type="matrix" values="0 0 0 0 0 0 0 0 0 0 0 0 0 0 0 0 0 0 127 0" result="hardAlpha"/>
<feOffset dy="4"/>
<feGaussianBlur stdDeviation="2"/>
<feComposite in2="hardAlpha" operator="out"/>
<feColorMatrix type="matrix" values="0 0 0 0 0 0 0 0 0 0 0 0 0 0 0 0 0 0 0.25 0"/>
<feBlend mode="normal" in2="BackgroundImageFix" result="effect1_dropShadow_726_5"/>
<feBlend mode="normal" in="SourceGraphic" in2="effect1_dropShadow_726_5" result="shape"/>
</filter>
<clipPath id="clip0_726_5">
<rect width="16" height="16" fill="white"/>
</clipPath>
</defs>
</svg>
