<svg width="16" height="16" viewBox="0 0 16 16" fill="none" xmlns="http://www.w3.org/2000/svg">
<path d="M14.9277 4V12L8 16L1.07227 12V4L8 0L14.9277 4ZM8 1C7.44772 1 7 1.44772 7 2C7 2.55228 7.44772 3 8 3C8.17608 3 8.34067 2.95294 8.48438 2.87305L12.5 5.28223V6.71875L10.2324 8.10645V6.71094L9.98242 6.56738L8.25977 5.57324H8.26074L4.99316 3.57324L4.73926 3.41797L4.48242 3.56738L2.75 4.56738L2.5 4.71094V10.1348C2.20133 10.3077 2 10.63 2 11C2 11.5523 2.44772 12 3 12C3.55228 12 4 11.5523 4 11C4 10.63 3.79867 10.3077 3.5 10.1348V5.28809L4.72363 4.58105L7.02148 5.9873L6.01758 6.56738L5.76758 6.71094V13.2891L6.01758 13.4326L7.75 14.4326L8.00488 14.5801L8.25684 14.4287L12.5146 11.873C12.6585 11.9532 12.8236 12 13 12C13.5523 12 14 11.5523 14 11C14 10.4477 13.5523 10 13 10C12.4477 10 12 10.4477 12 11C12 11.0052 11.9999 11.0104 12 11.0156L7.99414 13.4199L6.76758 12.7109V9.86523L7.75 10.4326L8 10.5771L8.25 10.4326L9.98145 9.43262L9.98242 9.43359L9.99316 9.42676L10.0156 9.41211L10.2314 9.28906V9.28027L13.2607 7.42676L13.5 7.28027V4.7168L13.2568 4.57129L8.99902 2.0166C8.99911 2.01107 9 2.00555 9 2C9 1.44772 8.55228 1 8 1Z" fill="black"/>
</svg>
