<svg width="16" height="16" viewBox="0 0 16 16" fill="none" xmlns="http://www.w3.org/2000/svg">
<path d="M14.9277 12L8 16L5.55566 14.5879V10.5234L7.75391 11.7686L8 11.9082L8.24609 11.7686L11.1904 10.1016L11.2021 10.0957L14.9277 7.85938V12ZM7.00684 4.65332L4.80957 5.89844L4.55566 6.04199V14.0107L1.07227 12V4L3.54199 2.57324L7.00684 4.65332ZM10.4443 6.62402V9.375L8 10.7588L5.55566 9.375V6.62402L8 5.24023L10.4443 6.62402ZM14.9277 4V6.69238L11.4443 8.7832V6.04199L11.1904 5.89844L8.24609 4.23145H8.24512L4.53125 2.00195L8 0L14.9277 4Z" fill="black"/>
</svg>
