<svg width="16" height="16" viewBox="0 0 16 16" fill="none" xmlns="http://www.w3.org/2000/svg">
<g clip-path="url(#clip0_810_126)">
<rect width="16" height="16" fill="white"/>
<path d="M7.75 0.144338C7.9047 0.0550213 8.0953 0.0550212 8.25 0.144338L14.6782 3.85566C14.8329 3.94498 14.9282 4.11004 14.9282 4.28868V11.7113C14.9282 11.89 14.8329 12.055 14.6782 12.1443L8.25 15.8557C8.0953 15.945 7.9047 15.945 7.75 15.8557L1.3218 12.1443C1.1671 12.055 1.0718 11.89 1.0718 11.7113V4.28868C1.0718 4.11004 1.1671 3.94498 1.3218 3.85566L7.75 0.144338Z" fill="black"/>
<path d="M12.5 1L3.5 15" stroke="white" stroke-width="2" stroke-linecap="round"/>
<path d="M7.71891 4.45096C7.87361 4.36165 8.06421 4.36165 8.21891 4.45096L10.75 5.91229C10.9047 6.0016 11 6.16667 11 6.3453V9.26795C11 9.44658 10.9047 9.61165 10.75 9.70096L8.21891 11.1623C8.06421 11.2516 7.87361 11.2516 7.71891 11.1623L5.18782 9.70096C5.03312 9.61165 4.93782 9.44658 4.93782 9.26795V6.3453C4.93782 6.16667 5.03312 6.0016 5.18782 5.91229L7.71891 4.45096Z" fill="white"/>
</g>
<defs>
<clipPath id="clip0_810_126">
<rect width="16" height="16" fill="white"/>
</clipPath>
</defs>
</svg>
