<svg width="16" height="16" viewBox="0 0 16 16" fill="none" xmlns="http://www.w3.org/2000/svg">
<mask id="path-1-inside-1_726_22" fill="white">
<path d="M14.9277 12L8 16L5.55566 14.5879V10.5234L7.75391 11.7686L8 11.9082L8.24609 11.7686L11.1904 10.1016L11.2021 10.0957L14.9277 7.85938V12ZM7.00684 4.65332L4.80957 5.89844L4.55566 6.04199V14.0107L1.07227 12V4L3.54199 2.57324L7.00684 4.65332ZM10.4443 6.62402V9.375L8 10.7588L5.55566 9.375V6.62402L8 5.24023L10.4443 6.62402ZM14.9277 4V6.69238L11.4443 8.7832V6.04199L11.1904 5.89844L8.24609 4.23145H8.24512L4.53125 2.00195L8 0L14.9277 4Z"/>
</mask>
<path d="M14.9277 12L15.4278 12.866L15.9277 12.5773V12H14.9277ZM8 16L7.49977 16.8659L7.99986 17.1548L8.50003 16.866L8 16ZM5.55566 14.5879H4.55566V15.1651L5.05543 15.4538L5.55566 14.5879ZM5.55566 10.5234L6.04851 9.65332L4.55566 8.80775V10.5234H5.55566ZM7.75391 11.7686L8.24744 10.8988L8.24675 10.8984L7.75391 11.7686ZM8 11.9082L7.50646 12.7779L8 13.058L8.49354 12.7779L8 11.9082ZM8.24609 11.7686L7.75341 10.8983L7.75256 10.8988L8.24609 11.7686ZM11.1904 10.1016L10.7432 9.20714L10.7202 9.21866L10.6977 9.23135L11.1904 10.1016ZM11.2021 10.0957L11.6494 10.9901L11.6838 10.9729L11.7168 10.9531L11.2021 10.0957ZM14.9277 7.85938H15.9277V6.09279L14.4131 7.00198L14.9277 7.85938ZM7.00684 4.65332L7.49985 5.52334L8.9912 4.67824L7.52154 3.79596L7.00684 4.65332ZM4.80957 5.89844L5.30174 6.76894L5.30258 6.76846L4.80957 5.89844ZM4.55566 6.04199L4.0635 5.17149L3.55566 5.45861V6.04199H4.55566ZM4.55566 14.0107L4.05574 14.8768L5.55566 15.7426V14.0107H4.55566ZM1.07227 12H0.0722656V12.5774L0.57234 12.8661L1.07227 12ZM1.07227 4L0.572039 3.13411L0.0722656 3.42282V4H1.07227ZM3.54199 2.57324L4.0567 1.71588L3.55175 1.41273L3.04177 1.70735L3.54199 2.57324ZM10.4443 6.62402H11.4443V6.04102L10.937 5.7538L10.4443 6.62402ZM10.4443 9.375L10.937 10.2452L11.4443 9.95801V9.375H10.4443ZM8 10.7588L7.50735 11.629L8 11.9079L8.49265 11.629L8 10.7588ZM5.55566 9.375H4.55566V9.95801L5.06301 10.2452L5.55566 9.375ZM5.55566 6.62402L5.06301 5.7538L4.55566 6.04102V6.62402H5.55566ZM8 5.24023L8.49265 4.37001L8 4.09111L7.50735 4.37001L8 5.24023ZM14.9277 4H15.9277V3.42267L15.4278 3.13399L14.9277 4ZM14.9277 6.69238L15.4424 7.54979L15.9277 7.25846V6.69238H14.9277ZM11.4443 8.7832H10.4443V10.5497L11.959 9.64061L11.4443 8.7832ZM11.4443 6.04199H12.4443V5.45861L11.9365 5.17149L11.4443 6.04199ZM11.1904 5.89844L10.6977 6.76865L10.6983 6.76894L11.1904 5.89844ZM8.24609 4.23145L8.73878 3.36124L8.50953 3.23145H8.24609V4.23145ZM8.24512 4.23145L7.73042 5.08882L7.96801 5.23145H8.24512V4.23145ZM4.53125 2.00195L4.03139 1.13585L2.56009 1.98499L4.01656 2.85933L4.53125 2.00195ZM8 0L8.50003 -0.866011L8.00011 -1.15466L7.50014 -0.866104L8 0ZM14.9277 12L14.4277 11.134L7.49997 15.134L8 16L8.50003 16.866L15.4278 12.866L14.9277 12ZM8 16L8.50023 15.1341L6.0559 13.722L5.55566 14.5879L5.05543 15.4538L7.49977 16.8659L8 16ZM5.55566 14.5879H6.55566V10.5234H5.55566H4.55566V14.5879H5.55566ZM5.55566 10.5234L5.06282 11.3936L7.26106 12.6387L7.75391 11.7686L8.24675 10.8984L6.04851 9.65332L5.55566 10.5234ZM7.75391 11.7686L7.26037 12.6383L7.50646 12.7779L8 11.9082L8.49354 11.0385L8.24744 10.8988L7.75391 11.7686ZM8 11.9082L8.49354 12.7779L8.73963 12.6383L8.24609 11.7686L7.75256 10.8988L7.50646 11.0385L8 11.9082ZM8.24609 11.7686L8.73878 12.6388L11.6831 10.9718L11.1904 10.1016L10.6977 9.23135L7.75341 10.8983L8.24609 11.7686ZM11.1904 10.1016L11.6376 10.996L11.6494 10.9901L11.2021 10.0957L10.7549 9.20128L10.7432 9.20714L11.1904 10.1016ZM11.2021 10.0957L11.7168 10.9531L15.4424 8.71677L14.9277 7.85938L14.4131 7.00198L10.6875 9.23831L11.2021 10.0957ZM14.9277 7.85938H13.9277V12H14.9277H15.9277V7.85938H14.9277ZM7.00684 4.65332L6.51382 3.7833L4.31656 5.02842L4.80957 5.89844L5.30258 6.76846L7.49985 5.52334L7.00684 4.65332ZM4.80957 5.89844L4.3174 5.02794L4.0635 5.17149L4.55566 6.04199L5.04783 6.91249L5.30174 6.76894L4.80957 5.89844ZM4.55566 6.04199H3.55566V14.0107H4.55566H5.55566V6.04199H4.55566ZM4.55566 14.0107L5.05559 13.1447L1.57219 11.1339L1.07227 12L0.57234 12.8661L4.05574 14.8768L4.55566 14.0107ZM1.07227 12H2.07227V4H1.07227H0.0722656V12H1.07227ZM1.07227 4L1.57249 4.86589L4.04222 3.43914L3.54199 2.57324L3.04177 1.70735L0.572039 3.13411L1.07227 4ZM3.54199 2.57324L3.02728 3.43061L6.49213 5.51069L7.00684 4.65332L7.52154 3.79596L4.0567 1.71588L3.54199 2.57324ZM10.4443 6.62402H9.44434V9.375H10.4443H11.4443V6.62402H10.4443ZM10.4443 9.375L9.95168 8.50477L7.50735 9.88856L8 10.7588L8.49265 11.629L10.937 10.2452L10.4443 9.375ZM8 10.7588L8.49265 9.88856L6.04832 8.50477L5.55566 9.375L5.06301 10.2452L7.50735 11.629L8 10.7588ZM5.55566 9.375H6.55566V6.62402H5.55566H4.55566V9.375H5.55566ZM5.55566 6.62402L6.04832 7.49425L8.49265 6.11046L8 5.24023L7.50735 4.37001L5.06301 5.7538L5.55566 6.62402ZM8 5.24023L7.50735 6.11046L9.95168 7.49425L10.4443 6.62402L10.937 5.7538L8.49265 4.37001L8 5.24023ZM14.9277 4H13.9277V6.69238H14.9277H15.9277V4H14.9277ZM14.9277 6.69238L14.4131 5.83497L10.9297 7.9258L11.4443 8.7832L11.959 9.64061L15.4424 7.54979L14.9277 6.69238ZM11.4443 8.7832H12.4443V6.04199H11.4443H10.4443V8.7832H11.4443ZM11.4443 6.04199L11.9365 5.17149L11.6826 5.02794L11.1904 5.89844L10.6983 6.76894L10.9522 6.91249L11.4443 6.04199ZM11.1904 5.89844L11.6831 5.02823L8.73878 3.36124L8.24609 4.23145L7.75341 5.10165L10.6977 6.76865L11.1904 5.89844ZM8.24609 4.23145V3.23145H8.24512V4.23145V5.23145H8.24609V4.23145ZM8.24512 4.23145L8.75981 3.37407L5.04594 1.14458L4.53125 2.00195L4.01656 2.85933L7.73042 5.08882L8.24512 4.23145ZM4.53125 2.00195L5.03111 2.86806L8.49986 0.866104L8 0L7.50014 -0.866104L4.03139 1.13585L4.53125 2.00195ZM8 0L7.49997 0.866011L14.4277 4.86601L14.9277 4L15.4278 3.13399L8.50003 -0.866011L8 0Z" fill="black" mask="url(#path-1-inside-1_726_22)"/>
</svg>
