<svg width="16" height="16" viewBox="0 0 16 16" fill="none" xmlns="http://www.w3.org/2000/svg">
<g id="origin">
<g id="Group 71">
<path id="Ellipse 68" d="M14.5 8C14.5 11.5899 11.5899 14.5 8 14.5C4.41015 14.5 1.5 11.5899 1.5 8C1.5 4.41015 4.41015 1.5 8 1.5C11.5899 1.5 14.5 4.41015 14.5 8Z" stroke="black"/>
<g id="Group 72">
<path id="Vector 65" d="M4.51833 10.9285L5.86558 8.23395L9.00916 9.5812L9.45825 4.1922L12.1527 6.43762" stroke="black" stroke-linecap="round" stroke-linejoin="round"/>
<g id="Ellipse 69">
<path d="M6.76374 8.2259C6.76374 8.72194 6.36162 9.12406 5.86558 9.12406C5.36953 9.12406 4.96741 8.72194 4.96741 8.2259C4.96741 7.72985 5.36953 7.32773 5.86558 7.32773C6.36162 7.32773 6.76374 7.72985 6.76374 8.2259Z" fill="black"/>
<path d="M9.90733 9.54524C9.90733 10.0413 9.50521 10.4434 9.00916 10.4434C8.51312 10.4434 8.11099 10.0413 8.11099 9.54524C8.11099 9.04919 8.51312 8.64707 9.00916 8.64707C9.50521 8.64707 9.90733 9.04919 9.90733 9.54524Z" fill="black"/>
<path d="M10.2963 4.1922C10.2963 4.68825 9.89421 5.09037 9.39817 5.09037C8.90212 5.09037 8.5 4.68825 8.5 4.1922C8.5 3.69616 8.90212 3.29404 9.39817 3.29404C9.89421 3.29404 10.2963 3.69616 10.2963 4.1922Z" fill="black"/>
<path d="M13.0509 6.43764C13.0509 6.93368 12.6488 7.3358 12.1527 7.3358C11.6567 7.3358 11.2546 6.93368 11.2546 6.43764C11.2546 5.94159 11.6567 5.53947 12.1527 5.53947C12.6488 5.53947 13.0509 5.94159 13.0509 6.43764Z" fill="black"/>
<path d="M5.41649 10.9285C5.41649 11.4245 5.01437 11.8266 4.51833 11.8266C4.02228 11.8266 3.62016 11.4245 3.62016 10.9285C3.62016 10.4324 4.02228 10.0303 4.51833 10.0303C5.01437 10.0303 5.41649 10.4324 5.41649 10.9285Z" fill="black"/>
</g>
</g>
</g>
</g>
</svg>
