<?xml version="1.0" encoding="UTF-8"?>
<svg id="_图层_1" data-name="图层 1" xmlns="http://www.w3.org/2000/svg" viewBox="0 0 564.66 624.33">
  <defs>
    <style>
      .cls-1 {
        fill: #d97757;
      }

      .cls-2 {
        fill: none;
        stroke: #d97757;
        stroke-linecap: round;
        stroke-miterlimit: 10;
        stroke-width: 29px;
      }
    </style>
  </defs>
  <path class="cls-1" d="M535.7,602.82c-8-2.69-15.42-7.61-22.24-14.79-6.83-7.16-13.46-17.14-19.89-29.9-5.39-10.69-11.12-24.28-17.19-40.77-.31-.84-.06-1.79.61-2.37,43.27-37.45,70.7-92.74,70.7-154.32,0-111.58-90.02-202.52-201.25-204.04-.89-.01-1.69-.57-1.99-1.41L289.52,4.48c-.98-2.69-3.54-4.48-6.4-4.48h-3.96c-2.84,0-5.39,1.77-6.38,4.43l-82.86,222.16-50.35,134.98-52.39,140.45c-7.02,18.38-12.97,33.83-17.85,46.37-4.88,12.55-10.24,22.74-16.09,30.58-5.85,7.84-12.87,14.01-21.07,18.48-7.82,4.28-17.96,7.54-30.4,9.77-1.03.18-1.79,1.07-1.79,2.12v12.84c0,1.19.96,2.15,2.15,2.15h163.04c1.19,0,2.15-.96,2.15-2.15v-12.64c0-1.13-.88-2.06-2-2.15-12.34-.92-22.3-2.56-29.89-4.9-8-2.46-14.24-5.38-18.72-8.74-4.49-3.36-7.41-7.06-8.78-11.09-1.37-4.03-2.05-8.51-2.05-13.44,0-11.65,4.29-29.34,12.87-53.09l32.72-86.67,3.03-8.03c.32-.84,1.12-1.39,2.02-1.39h96.04c.9,0,1.7-.56,2.02-1.4l10.93-29.29c.53-1.41-.52-2.91-2.02-2.91h-93.06c-1.5,0-2.55-1.5-2.02-2.91l1.22-3.26,55.68-148.53,18.34-48.92,10.49-27.99c1.94-5.16,9.25-5.13,11.15.05l5.54,15.16,6.43,17.6c1.92,5.26,7.66,8.01,13,6.3,16.83-5.4,34.75-8.32,53.35-8.32,4.05,0,8.07.15,12.05.42,90.93,6.21,163.02,82.16,163.02,174.65,0,49.36-20.54,94-53.51,125.86-17.97,17.36-39.63,30.93-63.68,39.38-1.09.38-1.69,1.56-1.35,2.67,3.05,10,5.31,18.7,6.79,26.1,1.24,6.21,1.94,11.52,2.07,15.9,0,9.86-3.8,18.26-11.41,25.2-7.36,6.72-21.01,10.61-40.95,11.66-1.15.06-2.05,1-2.05,2.15v12.59c0,1.19.96,2.15,2.15,2.15h205.76c1.19,0,2.15-.96,2.15-2.15v-12.59c0-1.15-.91-2.09-2.06-2.15-10.44-.54-19.4-2.09-26.91-4.61Z"/>
  <path class="cls-2" d="M343.63,171.09c104.7,0,189.57,84.87,189.57,189.57s-84.87,189.57-189.57,189.57"/>
  <circle class="cls-1" cx="343.63" cy="360.66" r="16.2"/>
  <path class="cls-1" d="M341.69,255.64l-7.59,100.47h19.05l-7.59-100.47c-.18-2.39-3.69-2.39-3.87,0Z"/>
  <path class="cls-1" d="M436.96,330.53l-91.67,19.71,5.4,18.27,87.67-33.26c2.85-1.08,1.59-5.36-1.4-4.72Z"/>
  <rect class="cls-1" x="335.72" y="197.26" width="15.81" height="38.65" rx="7.91" ry="7.91"/>
  <rect class="cls-1" x="335.72" y="485.41" width="15.81" height="38.65" rx="7.91" ry="7.91"/>
  <rect class="cls-1" x="410.92" y="224.29" width="9.49" height="23.19" rx="4.74" ry="4.74" transform="translate(173.63 -176.23) rotate(30)"/>
  <rect class="cls-1" x="266.85" y="473.84" width="9.49" height="23.19" rx="4.74" ry="4.74" transform="translate(279.1 -70.76) rotate(30)"/>
  <rect class="cls-1" x="463.66" y="277.03" width="9.49" height="23.19" rx="4.74" ry="4.74" transform="translate(484.16 -261.34) rotate(60)"/>
  <rect class="cls-1" x="479.8" y="341.34" width="15.81" height="38.65" rx="7.91" ry="7.91" transform="translate(848.37 -127.04) rotate(90)"/>
  <rect class="cls-1" x="463.66" y="421.11" width="9.49" height="23.19" rx="4.74" ry="4.74" transform="translate(1077.33 243.4) rotate(120)"/>
  <rect class="cls-1" x="410.92" y="473.84" width="9.49" height="23.19" rx="4.74" ry="4.74" transform="translate(1018.36 698) rotate(150)"/>
</svg>